<svg width="145" height="23" viewBox="0 0 145 23" fill="none" xmlns="http://www.w3.org/2000/svg">
<path d="M35.0338 16.3546V22.2594C34.567 22.3411 34.1409 22.3819 33.7541 22.3819C31.4696 22.3819 29.5658 21.6299 28.0428 20.1242C26.5198 18.6185 25.7583 16.733 25.7583 14.4646C25.7583 12.1962 26.5274 10.3864 28.0655 8.85041C29.6036 7.31446 31.4741 6.54724 33.6785 6.54724C36.1353 6.54724 38.0723 7.26755 39.4895 8.70666C40.9068 10.1458 41.6139 12.1115 41.6139 14.6023V19.2086C41.6139 20.7839 40.3387 22.0611 38.7658 22.0611C37.1929 22.0611 35.9177 20.7839 35.9177 19.2086V15.0139C35.9177 14.2104 35.7213 13.5703 35.3315 13.0921C34.9402 12.6139 34.4144 12.3748 33.7556 12.3748C33.1558 12.3748 32.639 12.5942 32.2024 13.0315C31.7657 13.4689 31.5466 13.9879 31.5466 14.5872C31.5466 15.2182 31.7446 15.7357 32.1404 16.1428C32.5363 16.5499 33.0394 16.7526 33.6483 16.7526C34.1454 16.7526 34.6078 16.621 35.0338 16.3562V16.3546Z" fill="#009486"/>
<path d="M107.602 16.3546V22.2594C107.135 22.3411 106.709 22.3819 106.322 22.3819C104.037 22.3819 102.134 21.6299 100.611 20.1242C99.0877 18.6185 98.3262 16.733 98.3262 14.4646C98.3262 12.1962 99.0952 10.3864 100.633 8.85041C102.171 7.31446 104.042 6.54724 106.246 6.54724C108.703 6.54724 110.64 7.26755 112.057 8.70666C113.475 10.1458 114.182 12.1115 114.182 14.6023V19.2086C114.182 20.7839 112.907 22.0611 111.334 22.0611C109.761 22.0611 108.486 20.7839 108.486 19.2086V15.0139C108.486 14.2104 108.289 13.5703 107.899 13.0921C107.508 12.6139 106.982 12.3748 106.323 12.3748C105.724 12.3748 105.207 12.5942 104.77 13.0315C104.334 13.4689 104.115 13.9879 104.115 14.5872C104.115 15.2182 104.312 15.7357 104.708 16.1428C105.104 16.5499 105.607 16.7526 106.216 16.7526C106.713 16.7526 107.176 16.621 107.602 16.3562V16.3546Z" fill="#009486"/>
<path d="M45.145 1.25232C46.7178 1.25232 47.993 2.52951 47.993 4.10481V13.7155C47.993 15.7387 48.7183 16.7511 50.1718 16.7511C50.7913 16.7511 51.3171 16.5407 51.7477 16.1185C52.1798 15.6963 52.3959 15.1849 52.3959 14.5856C52.3959 13.9864 52.1919 13.4446 51.787 13.0224C51.3805 12.6002 50.8834 12.3899 50.2942 12.3899C49.8772 12.3899 49.4012 12.573 48.8618 12.9392V6.65464C49.5327 6.5926 50.0403 6.56233 50.3848 6.56233C52.55 6.56233 54.4024 7.35225 55.9405 8.93057C57.391 10.4196 58.1857 12.3929 58.1842 14.4736C58.1827 16.6966 57.4061 18.57 55.8544 20.0939C54.3011 21.6192 52.3913 22.3819 50.1265 22.3819C48.9887 22.3819 47.8797 22.1322 46.7979 21.6343C45.7161 21.1365 44.8246 20.4646 44.1251 19.6202C42.9073 18.1554 42.2969 16.2593 42.2969 13.9304V4.10481C42.2969 2.52951 43.5721 1.25232 45.145 1.25232Z" fill="#009486"/>
<path d="M125.158 15.0593L130.809 14.8459C130.646 17.0432 129.829 18.8485 128.357 20.2619C126.884 21.6752 125.092 22.3819 122.98 22.3819C120.745 22.3819 118.859 21.6041 117.321 20.047C115.783 18.4913 115.014 16.5846 115.014 14.3269C115.014 12.0691 115.791 10.3455 117.344 8.82013C118.763 7.42643 120.624 6.60775 122.611 6.53814C124.643 6.46702 126.426 7.06476 127.961 8.33287C127.976 8.34497 127.99 8.35708 128.005 8.36918C129.873 9.93237 128.771 12.9952 126.339 13.086L126.125 13.0936C125.5 13.1163 124.862 12.9695 124.359 12.5972C123.969 12.3082 123.519 12.1629 123.011 12.1629C122.362 12.1629 121.828 12.3763 121.411 12.8045C120.994 13.2313 120.787 13.7715 120.787 14.4222C120.787 15.0729 121.008 15.6373 121.451 16.0853C121.892 16.5332 122.443 16.7572 123.104 16.7572C124.068 16.7572 124.754 16.1927 125.16 15.0638L125.158 15.0593Z" fill="#009486"/>
<path d="M137.338 4.4102V7.91944C138.304 7.21729 139.268 6.86621 140.232 6.86621C141.694 6.86621 142.855 7.39585 143.713 8.4521C144.571 9.50987 145 10.9384 145 12.7392V22.3801H139.304V14.3402C139.304 13.6895 139.236 13.2522 139.098 13.0282C138.961 12.8042 138.695 12.6922 138.299 12.6922C137.66 12.6922 137.34 13.1659 137.34 14.1102V22.3786H131.644V4.40717C131.644 2.83188 132.919 1.55469 134.492 1.55469C136.065 1.55469 137.34 2.83188 137.34 4.40717L137.338 4.4102Z" fill="#009486"/>
<path d="M64.7113 7.17163V19.5289C64.7113 21.1042 63.4361 22.3814 61.8632 22.3814C60.2904 22.3814 59.0151 21.1042 59.0151 19.5289V7.17163H64.7113Z" fill="#009486"/>
<path d="M61.8783 0.381836C62.6504 0.381836 63.3182 0.654222 63.8818 1.19748C64.4454 1.74225 64.7279 2.38539 64.7279 3.12688C64.7279 3.91983 64.462 4.57053 63.9286 5.07898C63.3953 5.58743 62.7123 5.84166 61.8798 5.84166C61.0473 5.84166 60.3644 5.58743 59.831 5.07898C59.2977 4.57053 59.0317 3.91983 59.0317 3.12688C59.0317 2.38387 59.3128 1.74074 59.8779 1.19748C60.4414 0.654222 61.1093 0.381836 61.8813 0.381836H61.8783Z" fill="#009486"/>
<path d="M89.6475 6.54565C91.8006 6.54565 93.6469 7.32044 95.185 8.87153C96.7231 10.4226 97.4922 12.2809 97.4922 14.4479C97.4922 16.6149 96.7126 18.517 95.1533 20.062C93.594 21.6086 91.7129 22.3804 89.51 22.3804C87.3071 22.3804 85.423 21.6041 83.8592 20.0545C82.2954 18.5034 81.5127 16.6345 81.5127 14.4479C81.5127 12.2612 82.2938 10.3469 83.8592 8.82613C85.423 7.30531 87.3524 6.54565 89.6475 6.54565ZM89.4949 12.175C88.886 12.175 88.3677 12.3959 87.9417 12.8393C87.5156 13.2812 87.3025 13.8229 87.3025 14.4645C87.3025 15.1061 87.5186 15.6343 87.9492 16.0822C88.3813 16.5301 88.8966 16.7541 89.4949 16.7541C90.0932 16.7541 90.625 16.5301 91.0557 16.0822C91.4878 15.6343 91.7039 15.0955 91.7039 14.4645C91.7039 13.8335 91.4908 13.2827 91.0647 12.8393C90.6386 12.3974 90.1144 12.175 89.4949 12.175Z" fill="#009486"/>
<path d="M25.0192 7.01912V13.1221C24.6233 12.8981 24.2622 12.7861 23.9374 12.7861C22.9009 12.7861 22.3842 13.5791 22.3842 15.1665V19.5292C22.3842 21.1045 21.1089 22.3817 19.5361 22.3817C17.9632 22.3817 16.688 21.1045 16.688 19.5292V14.0679C16.688 11.8706 17.2863 10.1198 18.486 8.81233C19.6841 7.50487 21.2827 6.85266 23.2847 6.85266C23.7319 6.85266 24.3106 6.90865 25.0207 7.02063L25.0192 7.01912Z" fill="#009486"/>
<path d="M9.27554 16.3546V22.2594C8.80866 22.3411 8.38258 22.3819 7.99579 22.3819C5.71128 22.3819 3.80752 21.6299 2.28451 20.1242C0.761504 18.6185 0 16.733 0 14.4646C0 12.1962 0.769058 10.3864 2.30717 8.85041C3.84529 7.31446 5.71581 6.54724 7.92024 6.54724C10.377 6.54724 12.314 7.26755 13.7312 8.70666C15.1485 10.1458 15.8556 12.1115 15.8556 14.6023V19.2086C15.8556 20.7839 14.5804 22.0611 13.0075 22.0611C11.4346 22.0611 10.1594 20.7839 10.1594 19.2086V15.0139C10.1594 14.2104 9.96301 13.5703 9.57319 13.0921C9.18186 12.6139 8.65606 12.3748 7.9973 12.3748C7.39746 12.3748 6.88073 12.5942 6.44407 13.0315C6.00742 13.4689 5.78833 13.9879 5.78833 14.5872C5.78833 15.2182 5.98627 15.7357 6.38213 16.1428C6.77799 16.5499 7.28112 16.7526 7.89002 16.7526C8.38712 16.7526 8.84946 16.621 9.27554 16.3562V16.3546Z" fill="#009486"/>
<path d="M75.6885 12.631C75.764 12.749 75.8381 12.8701 75.9045 12.9926C75.8396 12.867 75.7686 12.746 75.6885 12.631Z" fill="#009486"/>
<path d="M76.5407 15.0201C76.5724 15.288 76.5951 15.5589 76.5936 15.8403C76.586 17.4883 76.0043 18.8986 74.8484 20.0684C73.6926 21.2396 72.2995 21.8283 70.6677 21.8374C70.5121 21.8374 70.3625 21.8283 70.2114 21.8192C71.124 22.1899 72.1167 22.3821 73.194 22.3821C75.2791 22.3821 77.0499 21.6754 78.5034 20.2636C79.9569 18.8517 80.7652 17.0479 80.9254 14.8522L76.5422 15.0201H76.5407Z" fill="#F9BF34"/>
<path d="M67.6032 20.0501C67.7815 20.2332 67.9658 20.4026 68.1531 20.563L70.5162 16.2594C70.1733 15.7479 69.9708 15.1305 69.9708 14.4646C69.9708 12.7002 71.382 11.2702 73.1241 11.2702C74.1878 11.2702 75.1185 11.8119 75.6881 12.6321C75.46 12.278 75.194 11.939 74.8798 11.6212C73.7451 10.4727 72.3686 9.8946 70.7504 9.89006C69.1322 9.88401 67.7573 10.4545 66.6286 11.5985C66.1013 12.1327 65.6934 12.7108 65.3927 13.3267C65.3534 13.6566 65.3247 13.991 65.3247 14.3375C65.3247 16.5938 66.0847 18.4975 67.6032 20.0531V20.0501Z" fill="#F9BF34"/>
<path d="M75.9375 13.0496C75.9269 13.0299 75.9163 13.0117 75.9058 12.9921C75.9163 13.0117 75.9284 13.0299 75.9375 13.0496Z" fill="#009486"/>
<path d="M74.8467 20.0698C76.0026 18.8986 76.5843 17.4897 76.5918 15.8418C76.5918 15.5603 76.5707 15.2879 76.5389 15.0216L76.2201 15.0337C75.9542 16.5258 74.6729 17.6592 73.1243 17.6592C72.6921 17.6592 72.2812 17.5699 71.9049 17.411L68.1851 20.5934C68.8076 21.1215 69.4844 21.5256 70.2097 21.8207C70.3608 21.8297 70.5104 21.8403 70.666 21.8388C72.2978 21.8313 73.6924 21.2411 74.8467 20.0698Z" fill="#009486"/>
<path d="M70.7504 9.88835C72.3686 9.8944 73.745 10.471 74.8797 11.6195C75.194 11.9373 75.4614 12.2763 75.6881 12.6304C75.7682 12.7454 75.8392 12.8664 75.9041 12.992C75.9147 13.0117 75.9268 13.0299 75.9359 13.0495C75.9419 13.0632 75.951 13.0753 75.957 13.0889C76.0703 13.0964 76.1821 13.104 76.2955 13.0995L76.5055 13.0919C78.9063 13.0026 79.9957 9.94283 78.1509 8.37963C78.1373 8.36753 78.1222 8.35542 78.1086 8.34331C76.5931 7.07672 74.8329 6.47898 72.8249 6.55011C70.8637 6.61972 69.0249 7.43839 67.6243 8.83058C66.3385 10.1093 65.5982 11.6074 65.3896 13.3219C65.6903 12.706 66.0983 12.1295 66.6256 11.5938C67.7542 10.4498 69.1277 9.88078 70.7474 9.88532L70.7504 9.88835Z" fill="#009486"/>
</svg>
