<svg width="40" height="42" viewBox="0 0 40 42" fill="none" xmlns="http://www.w3.org/2000/svg">
<path d="M26.5718 15.9519C26.7655 16.2541 26.9553 16.564 27.1258 16.8778C26.9592 16.5562 26.7771 16.2463 26.5718 15.9519Z" fill="#009486"/>
<path d="M28.7575 22.0687C28.8389 22.7544 28.897 23.4478 28.8931 24.1684C28.8738 28.3872 27.3823 31.9978 24.4186 34.9924C21.455 37.9909 17.8832 39.4979 13.6992 39.5211C13.3002 39.5211 12.9167 39.4979 12.5293 39.4746C14.8692 40.4238 17.4144 40.9158 20.1766 40.9158C25.5227 40.9158 30.0631 39.1066 33.7899 35.4922C37.5167 31.8777 39.5893 27.2599 39.9999 21.6387L28.7614 22.0687H28.7575Z" fill="#F9BF34"/>
<path d="M5.84202 34.9463C6.29915 35.4151 6.77178 35.8489 7.25216 36.2596L13.3111 25.2419C12.4317 23.9325 11.9126 22.3519 11.9126 20.6473C11.9126 16.1302 15.5309 12.4693 19.9977 12.4693C22.725 12.4693 25.1114 13.8562 26.5719 15.9559C25.9869 15.0494 25.3051 14.1816 24.4993 13.368C21.5899 10.4277 18.0607 8.94778 13.9116 8.93616C9.76252 8.92066 6.23716 10.3812 3.34328 13.3099C1.99125 14.6774 0.945264 16.1573 0.174335 17.7341C0.073611 18.5786 0 19.4347 0 20.3219C0 26.098 1.94864 30.9716 5.84202 34.954V34.9463Z" fill="#F9BF34"/>
<path d="M27.2107 17.0247C27.1836 16.9743 27.1565 16.9278 27.1294 16.8774C27.1565 16.9278 27.1875 16.9743 27.2107 17.0247Z" fill="#009486"/>
<path d="M24.415 34.9961C27.3786 31.9976 28.8701 28.3909 28.8895 24.1721C28.8895 23.4515 28.8352 22.7542 28.7539 22.0724L27.9365 22.1034C27.2547 25.9232 23.9695 28.8248 19.9986 28.8248C18.8907 28.8248 17.8369 28.5962 16.8723 28.1895L7.33447 36.3365C8.93057 37.6885 10.6661 38.7229 12.5257 39.4783C12.9131 39.5016 13.2966 39.5287 13.6956 39.5248C17.8795 39.5055 21.4553 37.9946 24.415 34.9961Z" fill="#009486"/>
<path d="M13.912 8.9356C18.0611 8.9511 21.5903 10.4271 24.4997 13.3675C25.3055 14.181 25.9912 15.0488 26.5723 15.9553C26.7776 16.2497 26.9597 16.5597 27.1263 16.8812C27.1534 16.9316 27.1844 16.9781 27.2076 17.0284C27.2231 17.0633 27.2464 17.0943 27.2619 17.1291C27.5524 17.1485 27.8391 17.1679 28.1296 17.1563L28.6681 17.1369C34.8239 16.9083 37.6171 9.07507 32.8869 5.07321C32.8521 5.04222 32.8133 5.01122 32.7784 4.98022C28.8928 1.73767 24.3796 0.207442 19.231 0.389521C14.2025 0.567726 9.48786 2.66356 5.89665 6.22766C2.59986 9.5012 0.701606 13.3365 0.166992 17.7257C0.937921 16.149 1.9839 14.673 3.33593 13.3016C6.22982 10.3729 9.7513 8.91622 13.9042 8.92785L13.912 8.9356Z" fill="#009486"/>
</svg>
