<svg width="88" height="89" viewBox="0 0 88 89" fill="none" xmlns="http://www.w3.org/2000/svg">
<rect y="0.76416" width="88" height="88" rx="11.4583" fill="#009486"/>
<path d="M55.2505 36.7761C55.5814 37.2924 55.9057 37.8218 56.1969 38.3579C55.9123 37.8086 55.6013 37.2791 55.2505 36.7761Z" fill="white"/>
<path d="M58.9762 47.2263C59.1152 48.3978 59.2145 49.5825 59.2078 50.8136C59.1748 58.0211 56.6266 64.1894 51.5635 69.3055C46.5004 74.4282 40.3982 77.0028 33.2503 77.0425C32.5686 77.0425 31.9133 77.0028 31.2515 76.9631C35.249 78.5846 39.5973 79.4252 44.3163 79.4252C53.4498 79.4252 61.2066 76.3344 67.5736 70.1593C73.9406 63.9843 77.4814 56.0951 78.183 46.4917L58.9828 47.2263H58.9762Z" fill="#F9BF34"/>
<path d="M19.8347 69.2193C20.6157 70.0201 21.4231 70.7614 22.2438 71.463L32.595 52.6401C31.0926 50.4031 30.2058 47.7026 30.2058 44.7905C30.2058 37.0734 36.3874 30.819 44.0185 30.819C48.6779 30.819 52.7549 33.1884 55.2501 36.7756C54.2507 35.2269 53.0858 33.7444 51.7092 32.3545C46.7387 27.3311 40.7093 24.8028 33.6209 24.7829C26.5326 24.7564 20.5097 27.2516 15.5657 32.2552C13.2559 34.5915 11.469 37.1198 10.1519 39.8135C9.9798 41.2563 9.854 42.719 9.854 44.2346C9.854 54.1027 13.1831 62.4288 19.8347 69.2325V69.2193Z" fill="#F9BF34"/>
<path d="M56.3358 38.6087C56.2895 38.5226 56.2431 38.4432 56.1968 38.3572C56.2431 38.4432 56.2961 38.5226 56.3358 38.6087Z" fill="white"/>
<path d="M51.5636 69.3053C56.6267 64.1826 59.1749 58.0208 59.208 50.8133C59.208 49.5823 59.1153 48.3909 58.9763 47.2261L57.5798 47.279C56.4149 53.8048 50.8025 58.7621 44.0185 58.7621C42.1256 58.7621 40.3255 58.3716 38.6775 57.6767L22.3828 71.5952C25.1096 73.9051 28.0747 75.6723 31.2516 76.9629C31.9134 77.0026 32.5687 77.0489 33.2504 77.0423C40.3983 77.0092 46.5071 74.4279 51.5636 69.3053Z" fill="white"/>
<path d="M33.6026 24.7833C40.6908 24.8097 46.7202 27.3311 51.6906 32.3539C53.0672 33.7436 54.2387 35.2259 55.2314 36.7745C55.5822 37.2774 55.8932 37.8068 56.1778 38.3561C56.2241 38.4421 56.2771 38.5216 56.3169 38.6076C56.3433 38.6671 56.383 38.7201 56.4094 38.7797C56.9058 38.8127 57.3957 38.8459 57.892 38.826L58.8119 38.7929C69.3285 38.4025 74.1004 25.0215 66.0193 18.1855C65.9598 18.1325 65.8936 18.0796 65.8341 18.0266C59.1959 12.4877 51.4854 9.87369 42.6896 10.1847C34.0989 10.4891 26.0444 14.0693 19.9092 20.1576C14.277 25.7495 11.0339 32.301 10.1206 39.7988C11.4377 37.1054 13.2247 34.584 15.5345 32.2414C20.4784 27.2384 26.4944 24.7502 33.5893 24.7701L33.6026 24.7833Z" fill="white"/>
</svg>
