<svg width="188" height="33" viewBox="0 0 188 33" fill="none" xmlns="http://www.w3.org/2000/svg">
<path d="M90.461 31.5699C91.7732 32.0493 93.1751 32.3033 94.6458 32.3033C97.8393 32.3033 100.594 31.2032 102.832 29.0315C103.625 28.2618 104.289 27.4099 104.832 26.4874C105.334 27.2858 105.928 28.046 106.642 28.7527C109.02 31.1077 111.925 32.3014 115.276 32.3014C118.626 32.3014 121.527 31.1115 123.899 28.7622C124.679 27.9906 125.32 27.1559 125.846 26.2716C126.373 27.196 127.024 28.0574 127.82 28.8424C130.147 31.1383 133.077 32.3014 136.528 32.3014C137.135 32.3014 137.8 32.2384 138.509 32.1162L140.262 31.8106V31.27C141.043 31.6711 141.928 31.8965 142.864 31.8965C145.377 31.8965 147.512 30.2635 148.276 28.004C148.487 28.2503 148.699 28.4929 148.93 28.7278C151.277 31.0981 154.19 32.3014 157.586 32.3014C160.808 32.3014 163.587 31.2032 165.846 29.0373C166.049 28.8444 166.232 28.64 166.419 28.4356V32.3014H187.536V18.0166C187.536 15.2567 186.83 12.9876 185.435 11.2724C183.955 9.4503 181.866 8.48958 179.394 8.48958C178.876 8.48958 178.363 8.54497 177.851 8.65575V7.50403C177.851 4.35254 175.286 1.78743 172.134 1.78743C168.983 1.78743 166.418 4.35254 166.418 7.50403V12.172C166.118 11.6926 165.745 11.2533 165.293 10.8752L165.228 10.8217C162.888 8.89068 160.137 7.96815 157.043 8.0732C154.026 8.18016 151.162 9.41593 148.979 11.5589C148.231 12.2943 147.612 13.085 147.096 13.9216C146.609 13.0124 146.011 12.1797 145.283 11.4405C143.089 9.21347 140.111 8.08657 136.431 8.08657C133.079 8.08657 130.189 9.27268 127.841 11.6105C127.053 12.3955 126.407 13.2493 125.88 14.1546C125.358 13.2665 124.722 12.4261 123.949 11.6468C121.602 9.28414 118.742 8.08657 115.448 8.08657C111.99 8.08657 109.032 9.25549 106.658 11.5628C105.6 12.5903 104.786 13.7344 104.192 14.9797C104.177 13.4307 103.516 11.9447 102.293 10.9114L102.219 10.8484C99.9002 8.91359 97.1727 7.99298 94.1091 8.09612C91.118 8.20308 88.2798 9.44267 86.1196 11.5857C86.091 11.6143 86.068 11.643 86.0394 11.6716V8.87731H85.2162C85.7663 8.01209 86.0585 6.99979 86.0585 5.89008C86.0585 4.3831 85.4664 3.01364 84.3414 1.93067C83.2393 0.868719 81.8565 0.309082 80.3419 0.309082C78.8272 0.309082 77.4444 0.870619 76.3405 1.93257C75.2193 3.01554 74.6253 4.3831 74.6253 5.89199C74.6253 7.0017 74.9175 8.01399 75.4676 8.87921H74.6062V12.0288C74.5183 11.9333 74.4381 11.8302 74.3464 11.7366C71.9971 9.32997 69.1264 8.10949 65.8107 8.10949C65.5566 8.10949 65.2549 8.11904 64.9034 8.14005V7.12393C64.9034 3.97244 62.3383 1.40733 59.1868 1.40733C56.0353 1.40733 53.4702 3.97244 53.4702 7.12393V11.3775C51.2833 9.19818 48.3323 8.0904 44.6919 8.0904C41.3398 8.0904 38.45 9.27649 36.1027 11.6143C36.0167 11.7003 35.9441 11.792 35.862 11.8779V8.99191L34.0742 8.71114C33.0562 8.5507 32.2311 8.47429 31.5512 8.47429C28.4169 8.47429 25.8517 9.53626 23.9284 11.6334C23.3993 12.2083 22.9524 12.8444 22.5704 13.5243C22.1253 12.7718 21.602 12.0727 20.9812 11.4443C18.7867 9.21729 15.809 8.0904 12.1284 8.0904C8.77641 8.0904 5.8866 9.27649 3.53922 11.6143C1.18993 13.956 0 16.8439 0 20.1997C0 23.5556 1.1842 26.5466 3.51821 28.8501C5.84458 31.1459 8.77259 32.3091 12.2239 32.3091C12.8313 32.3091 13.496 32.246 14.2046 32.1238L15.958 31.8182V31.2758C16.7392 31.6769 17.6235 31.9023 18.5594 31.9023C20.0836 31.9023 21.4664 31.2987 22.4921 30.3227C23.5406 31.5355 25.0858 32.3072 26.8125 32.3072C29.9639 32.3072 32.5291 29.744 32.5291 26.5906V24.7092H33.3714C33.9558 26.2468 34.8516 27.6334 36.0797 28.8463C38.4061 31.1421 41.336 32.3053 44.7874 32.3053C45.3948 32.3053 46.0594 32.2422 46.768 32.12L48.5214 31.8144V31.272C49.3026 31.6731 50.1869 31.8984 51.1228 31.8984C53.5466 31.8984 55.617 30.38 56.4479 28.2465C57.506 29.4594 58.8258 30.4468 60.3901 31.1669C62.0308 31.9213 63.7421 32.3033 65.4821 32.3033C68.9048 32.3033 71.8386 31.1287 74.2032 28.81C74.4247 28.5941 74.6234 28.3669 74.8239 28.1415C75.5039 30.5404 77.708 32.3033 80.319 32.3033C82.4142 32.3033 84.2459 31.1669 85.241 29.4804L88.3352 30.7333L88.7267 30.8804L88.9788 30.995L90.0752 31.44C90.0752 31.44 90.079 31.44 90.0809 31.4419" fill="#009486"/>
<path d="M46.409 22.5818V30.0346C45.8188 30.1377 45.2802 30.1893 44.7913 30.1893C41.9034 30.1893 39.4968 29.24 37.5715 27.3396C35.6462 25.4391 34.6836 23.0593 34.6836 20.1962C34.6836 17.3331 35.6558 15.0488 37.6002 13.1101C39.5445 11.1715 41.9091 10.2031 44.6958 10.2031C47.8014 10.2031 50.25 11.1123 52.0416 12.9287C53.8332 14.7451 54.7271 17.2262 54.7271 20.37V26.184C54.7271 28.1723 53.115 29.7843 51.1267 29.7843C49.1384 29.7843 47.5264 28.1723 47.5264 26.184V20.8895C47.5264 19.8753 47.2781 19.0674 46.7853 18.4638C46.2906 17.8603 45.6259 17.5585 44.7932 17.5585C44.0349 17.5585 43.3817 17.8354 42.8297 18.3874C42.2777 18.9394 42.0008 19.5945 42.0008 20.3509C42.0008 21.1474 42.251 21.8006 42.7514 22.3144C43.2518 22.8282 43.8879 23.0841 44.6576 23.0841C45.286 23.0841 45.8704 22.9179 46.409 22.5837V22.5818Z" fill="white"/>
<path d="M138.142 22.5818V30.0346C137.552 30.1377 137.013 30.1893 136.524 30.1893C133.636 30.1893 131.23 29.24 129.304 27.3396C127.379 25.4391 126.417 23.0593 126.417 20.1962C126.417 17.3331 127.389 15.0488 129.333 13.1101C131.277 11.1715 133.642 10.2031 136.429 10.2031C139.534 10.2031 141.983 11.1123 143.775 12.9287C145.566 14.7451 146.46 17.2262 146.46 20.37V26.184C146.46 28.1723 144.848 29.7843 142.86 29.7843C140.871 29.7843 139.259 28.1723 139.259 26.184V20.8895C139.259 19.8753 139.011 19.0674 138.518 18.4638C138.024 17.8603 137.359 17.5585 136.526 17.5585C135.768 17.5585 135.115 17.8354 134.563 18.3874C134.011 18.9394 133.734 19.5945 133.734 20.3509C133.734 21.1474 133.984 21.8006 134.484 22.3144C134.985 22.8282 135.621 23.0841 136.39 23.0841C137.019 23.0841 137.603 22.9179 138.142 22.5837V22.5818Z" fill="white"/>
<path d="M59.1887 3.51807C61.177 3.51807 62.789 5.13009 62.789 7.1184V19.2488C62.789 21.8024 63.7058 23.0802 65.5433 23.0802C66.3263 23.0802 66.991 22.8147 67.5354 22.2818C68.0816 21.7489 68.3548 21.1034 68.3548 20.347C68.3548 19.5906 68.0969 18.9069 67.585 18.374C67.0712 17.8411 66.4428 17.5756 65.6979 17.5756C65.1708 17.5756 64.5691 17.8067 63.8873 18.2689V10.3367C64.7353 10.2584 65.3771 10.2202 65.8125 10.2202C68.5496 10.2202 70.8912 11.2172 72.8356 13.2094C74.6692 15.0888 75.6739 17.5794 75.6719 20.2057C75.67 23.0114 74.6883 25.376 72.7267 27.2994C70.7633 29.2246 68.349 30.1873 65.4859 30.1873C64.0477 30.1873 62.6458 29.8721 61.2782 29.2437C59.9107 28.6154 58.7838 27.7673 57.8995 26.7015C56.36 24.8527 55.5884 22.4594 55.5884 19.52V7.1184C55.5884 5.13009 57.2004 3.51807 59.1887 3.51807Z" fill="white"/>
<path d="M160.336 20.9449L167.479 20.6756C167.273 23.4489 166.24 25.7276 164.379 27.5115C162.517 29.2954 160.252 30.1874 157.582 30.1874C154.757 30.1874 152.373 29.2056 150.429 27.2403C148.484 25.2768 147.512 22.8702 147.512 20.0205C147.512 17.1708 148.494 14.9953 150.457 13.07C152.251 11.3109 154.604 10.2776 157.116 10.1898C159.685 10.1 161.938 10.8545 163.879 12.455C163.898 12.4703 163.915 12.4856 163.934 12.5009C166.295 14.4739 164.903 18.3397 161.828 18.4543L161.558 18.4639C160.768 18.4925 159.962 18.3072 159.326 17.8374C158.833 17.4726 158.264 17.2892 157.622 17.2892C156.801 17.2892 156.126 17.5585 155.599 18.099C155.072 18.6377 154.81 19.3195 154.81 20.1408C154.81 20.9621 155.089 21.6745 155.649 22.2399C156.207 22.8053 156.904 23.0879 157.738 23.0879C158.957 23.0879 159.824 22.3755 160.338 20.9507L160.336 20.9449Z" fill="white"/>
<path d="M175.734 7.50405V11.9333C176.955 11.0471 178.173 10.604 179.392 10.604C181.241 10.604 182.708 11.2725 183.793 12.6056C184.878 13.9407 185.42 15.7438 185.42 18.0166V30.1852H178.219V20.0374C178.219 19.2161 178.133 18.6641 177.96 18.3814C177.786 18.0988 177.45 17.9574 176.949 17.9574C176.141 17.9574 175.736 18.5553 175.736 19.7471V30.1833H168.536V7.50023C168.536 5.51193 170.148 3.8999 172.136 3.8999C174.124 3.8999 175.736 5.51193 175.736 7.50023L175.734 7.50405Z" fill="white"/>
<path d="M83.9248 10.9902V26.5872C83.9248 28.5755 82.3128 30.1875 80.3245 30.1875C78.3362 30.1875 76.7241 28.5755 76.7241 26.5872V10.9902H83.9248Z" fill="white"/>
<path d="M80.3435 2.42188C81.3195 2.42188 82.1638 2.76568 82.8762 3.45136C83.5886 4.13896 83.9458 4.95071 83.9458 5.8866C83.9458 6.88744 83.6096 7.70874 82.9354 8.3505C82.2612 8.99225 81.3979 9.31313 80.3454 9.31313C79.293 9.31313 78.4297 8.99225 77.7555 8.3505C77.0813 7.70874 76.7451 6.88744 76.7451 5.8866C76.7451 4.9488 77.1004 4.13705 77.8147 3.45136C78.5271 2.76568 79.3714 2.42188 80.3474 2.42188H80.3435Z" fill="white"/>
<path d="M115.447 10.2007C118.169 10.2007 120.503 11.1786 122.448 13.1363C124.392 15.0941 125.364 17.4395 125.364 20.1747C125.364 22.9098 124.379 25.3106 122.407 27.2607C120.436 29.2127 118.058 30.1868 115.274 30.1868C112.489 30.1868 110.107 29.207 108.13 27.2512C106.153 25.2934 105.164 22.9346 105.164 20.1747C105.164 17.4147 106.152 14.9986 108.13 13.079C110.107 11.1595 112.546 10.2007 115.447 10.2007ZM115.255 17.3059C114.485 17.3059 113.83 17.5847 113.291 18.1443C112.752 18.702 112.483 19.3858 112.483 20.1957C112.483 21.0055 112.756 21.6721 113.301 22.2374C113.847 22.8028 114.498 23.0855 115.255 23.0855C116.011 23.0855 116.683 22.8028 117.228 22.2374C117.774 21.6721 118.047 20.9921 118.047 20.1957C118.047 19.3992 117.778 18.704 117.239 18.1443C116.7 17.5866 116.038 17.3059 115.255 17.3059Z" fill="white"/>
<path d="M33.7494 10.7975V18.5005C33.249 18.2178 32.7926 18.0765 32.3819 18.0765C31.0717 18.0765 30.4184 19.0773 30.4184 21.0809V26.5874C30.4184 28.5757 28.8064 30.1877 26.8181 30.1877C24.8298 30.1877 23.2178 28.5757 23.2178 26.5874V19.6943C23.2178 16.9209 23.9741 14.7111 25.4906 13.0608C27.0053 11.4106 29.026 10.5874 31.5568 10.5874C32.1221 10.5874 32.8537 10.6581 33.7514 10.7994L33.7494 10.7975Z" fill="white"/>
<path d="M13.8456 22.5818V30.0346C13.2554 30.1377 12.7168 30.1893 12.2278 30.1893C9.33989 30.1893 6.93329 29.24 5.00802 27.3396C3.08275 25.4391 2.12012 23.0593 2.12012 20.1962C2.12012 17.3331 3.09231 15.0488 5.03668 13.1101C6.98105 11.1715 9.34562 10.2031 12.1323 10.2031C15.2379 10.2031 17.6865 11.1123 19.4781 12.9287C21.2697 14.7451 22.1636 17.2262 22.1636 20.37V26.184C22.1636 28.1723 20.5515 29.7843 18.5632 29.7843C16.5749 29.7843 14.9629 28.1723 14.9629 26.184V20.8895C14.9629 19.8753 14.7146 19.0674 14.2218 18.4638C13.7271 17.8603 13.0625 17.5585 12.2297 17.5585C11.4714 17.5585 10.8182 17.8354 10.2662 18.3874C9.71425 18.9394 9.4373 19.5945 9.4373 20.3509C9.4373 21.1474 9.6875 21.8006 10.1879 22.3144C10.6883 22.8282 11.3244 23.0841 12.0941 23.0841C12.7225 23.0841 13.3069 22.9179 13.8456 22.5837V22.5818Z" fill="white"/>
<path d="M97.8013 17.8813C97.8968 18.0303 97.9903 18.1831 98.0744 18.3378C97.9923 18.1793 97.9025 18.0265 97.8013 17.8813Z" fill="white"/>
<path d="M98.8764 20.8951C98.9166 21.2332 98.9452 21.5751 98.9433 21.9303C98.9337 24.0103 98.1984 25.7904 96.7372 27.2668C95.2761 28.7452 93.5151 29.4882 91.4523 29.4996C91.2556 29.4996 91.0665 29.4882 90.8755 29.4767C92.0291 29.9446 93.284 30.1872 94.6458 30.1872C97.2816 30.1872 99.5201 29.2952 101.358 27.5132C103.195 25.7312 104.217 23.4545 104.419 20.6831L98.8784 20.8951H98.8764Z" fill="#F9BF34"/>
<path d="M87.581 27.2442C87.8063 27.4753 88.0394 27.6892 88.2762 27.8916L91.2634 22.4596C90.8298 21.8141 90.5739 21.0348 90.5739 20.1944C90.5739 17.9673 92.3578 16.1624 94.5601 16.1624C95.9047 16.1624 97.0813 16.8462 97.8013 17.8814C97.5129 17.4344 97.1767 17.0066 96.7795 16.6055C95.3451 15.1558 93.6051 14.4262 91.5595 14.4205C89.5139 14.4128 87.7758 15.1329 86.349 16.5769C85.6824 17.2511 85.1667 17.9807 84.7866 18.7581C84.737 19.1744 84.7007 19.5965 84.7007 20.0339C84.7007 22.8817 85.6614 25.2845 87.581 27.248V27.2442Z" fill="#F9BF34"/>
<path d="M98.1143 18.4105C98.101 18.3856 98.0876 18.3627 98.0742 18.3379C98.0876 18.3627 98.1029 18.3856 98.1143 18.4105Z" fill="white"/>
<path d="M96.7376 27.2692C98.1987 25.7909 98.9341 24.0127 98.9436 21.9327C98.9436 21.5774 98.9169 21.2336 98.8768 20.8975L98.4737 20.9127C98.1376 22.796 96.5179 24.2266 94.5602 24.2266C94.0139 24.2266 93.4944 24.1139 93.0188 23.9133L88.3164 27.93C89.1033 28.5966 89.959 29.1066 90.8758 29.479C91.0668 29.4905 91.2559 29.5039 91.4526 29.502C93.5154 29.4924 95.2783 28.7475 96.7376 27.2692Z" fill="white"/>
<path d="M91.5574 14.4184C93.603 14.426 95.343 15.1537 96.7774 16.6034C97.1747 17.0045 97.5128 17.4323 97.7993 17.8793C97.9005 18.0244 97.9903 18.1772 98.0724 18.3357C98.0858 18.3606 98.101 18.3835 98.1125 18.4083C98.1201 18.4255 98.1316 18.4408 98.1392 18.458C98.2825 18.4675 98.4238 18.4771 98.5671 18.4714L98.8326 18.4618C101.868 18.3491 103.245 14.4871 100.913 12.5141C100.895 12.4988 100.876 12.4835 100.859 12.4683C98.9434 10.8696 96.7182 10.1151 94.1798 10.2049C91.7007 10.2928 89.3762 11.3261 87.6056 13.0833C85.9802 14.6972 85.0443 16.5881 84.7808 18.7521C85.1608 17.9748 85.6766 17.2471 86.3431 16.5709C87.7699 15.127 89.5061 14.4088 91.5536 14.4145L91.5574 14.4184Z" fill="white"/>
</svg>
