<svg width="224" height="219" viewBox="0 0 224 219" fill="none" xmlns="http://www.w3.org/2000/svg">
<path d="M208.068 146.035L127.083 117.878L144.946 190.802L208.068 146.035Z" fill="#241F20"/>
<path d="M15.3809 48.4389L64.8322 42.8838V117.878L15.3809 118.858V48.4389Z" fill="#241F20"/>
<path d="M197.829 33.0806V176.697L156.928 192.49V36.5117L197.829 33.0806Z" fill="white"/>
<path d="M156.927 192.763C156.872 192.763 156.818 192.763 156.763 192.709C156.709 192.654 156.654 192.6 156.654 192.491V36.512C156.654 36.3486 156.763 36.2397 156.927 36.2397L197.827 32.8086C197.882 32.8086 197.991 32.8086 198.045 32.8631C198.1 32.9175 198.154 32.972 198.154 33.0809V176.697C198.154 176.806 198.1 176.915 197.991 176.969L157.09 192.763C156.981 192.763 156.927 192.763 156.927 192.763ZM157.199 36.7299V192.055L197.555 176.479V33.3532L157.199 36.7299Z" fill="#241F20"/>
<path d="M197.828 33.0803L156.928 37.2194L72.0215 19.1381L107.476 15.8159L197.828 33.0803Z" fill="white"/>
<path d="M156.927 37.4919H156.873L71.9666 19.356C71.8033 19.356 71.6943 19.1927 71.6943 19.0837C71.6943 18.9748 71.8577 18.8114 71.9666 18.8114L107.367 15.4893H107.421L197.828 32.8081C197.937 32.8081 198.046 32.9715 198.046 33.0804C198.046 33.2438 197.937 33.3527 197.774 33.3527L156.927 37.4919ZM73.8184 19.1927L156.927 36.8928L195.922 32.9715L107.476 16.0883L73.8184 19.1927Z" fill="#241F20"/>
<path d="M72.0215 19.1382V171.468L156.928 166.893V37.2195L72.0215 19.1382Z" fill="white"/>
<path d="M72.0223 171.74C71.9678 171.74 71.9134 171.74 71.8589 171.686C71.8045 171.631 71.75 171.577 71.75 171.468V19.138C71.75 19.0291 71.8045 18.9746 71.8589 18.9202C71.9134 18.8657 72.0223 18.8657 72.0768 18.8657L156.983 36.9471C157.092 36.9471 157.201 37.1105 157.201 37.2194V166.893C157.201 167.056 157.092 167.165 156.928 167.165L72.0223 171.74ZM72.2946 19.4648V171.196L156.656 166.675V37.4372L72.2946 19.4648Z" fill="#241F20"/>
<path d="M155.621 37.3286V180.999L114.72 196.739V40.7597L155.621 37.3286Z" fill="white"/>
<path d="M114.72 197.011C114.665 197.011 114.611 197.011 114.556 196.956C114.502 196.902 114.447 196.847 114.447 196.738V40.7596C114.447 40.5962 114.556 40.4873 114.72 40.4873L155.62 37.0562C155.675 37.0562 155.784 37.0562 155.838 37.1106C155.893 37.1651 155.947 37.2195 155.947 37.3285V180.999C155.947 181.108 155.893 181.217 155.784 181.271L114.883 197.065C114.774 197.011 114.72 197.011 114.72 197.011ZM114.992 40.9774V196.303L155.348 180.727V37.6552L114.992 40.9774Z" fill="#241F20"/>
<path d="M114.72 40.7598L32.0469 22.8418V140.479L114.72 182.524V40.7598Z" fill="white"/>
<path d="M114.719 182.796C114.664 182.796 114.61 182.796 114.61 182.741L31.9368 140.697C31.8279 140.642 31.7734 140.534 31.7734 140.425V22.787C31.7734 22.678 31.8279 22.6236 31.8824 22.5691C31.9368 22.5146 32.0457 22.5146 32.1002 22.5146L114.773 40.4326C114.882 40.4871 114.991 40.596 114.991 40.7049V182.469C114.991 182.578 114.937 182.633 114.882 182.687C114.828 182.796 114.773 182.796 114.719 182.796ZM32.3181 140.316L114.447 182.088V40.9772L32.3181 23.1682V140.316Z" fill="#241F20"/>
<path d="M70.2246 19.3018L155.621 37.3286L114.72 40.7597L32.0469 22.8418L70.2246 19.3018Z" fill="white"/>
<path d="M114.72 41.0322H114.665L31.992 23.1142C31.8287 23.1142 31.7197 22.9508 31.7197 22.8419C31.7197 22.733 31.8831 22.5696 31.992 22.5696L70.2243 18.9751H70.2787L155.675 37.0564C155.838 37.0564 155.947 37.2198 155.947 37.3287C155.947 37.4377 155.784 37.6011 155.675 37.6011L114.72 41.0322ZM33.7893 22.9508L114.72 40.4875L153.769 37.2198L70.2243 19.5742L33.7893 22.9508Z" fill="#241F20"/>
<path d="M146.471 165.314C145.654 172.122 140.698 177.132 135.361 176.533C135.088 176.533 134.87 176.479 134.653 176.424C129.697 175.335 126.429 169.562 127.191 163.081C127.845 157.362 131.494 152.897 135.796 151.971C136.613 151.807 137.485 151.753 138.356 151.862C143.584 152.461 147.288 158.506 146.471 165.314Z" fill="white"/>
<path d="M136.232 176.86C135.905 176.86 135.578 176.86 135.306 176.805C135.033 176.751 134.816 176.751 134.543 176.696C129.478 175.607 126.102 169.616 126.864 163.026C127.518 157.308 131.167 152.679 135.633 151.698C136.504 151.535 137.375 151.48 138.247 151.589C143.747 152.243 147.505 158.452 146.688 165.368C146.362 168.581 144.946 171.577 142.767 173.919C141.079 175.716 138.737 176.805 136.232 176.86ZM137.321 152.08C136.776 152.08 136.232 152.134 135.741 152.243C131.439 153.169 128.008 157.635 127.354 163.081C126.592 169.344 129.805 175.117 134.598 176.152C134.816 176.206 135.033 176.261 135.306 176.261C137.811 176.533 140.316 175.607 142.331 173.538C144.455 171.305 145.817 168.418 146.144 165.314C146.961 158.669 143.366 152.733 138.192 152.134C137.92 152.08 137.648 152.08 137.321 152.08Z" fill="#241F20"/>
<path d="M143.204 165.314C142.55 171.032 138.901 175.498 134.599 176.424C129.643 175.335 126.375 169.562 127.138 163.081C127.791 157.362 131.44 152.897 135.743 151.971C140.644 153.06 143.966 158.833 143.204 165.314Z" fill="#241F20"/>
<path d="M189.061 155.511C188.244 162.319 183.288 167.329 177.951 166.676C177.679 166.676 177.461 166.621 177.243 166.567C172.287 165.477 168.965 159.705 169.782 153.224C170.435 147.505 174.084 143.039 178.387 142.113C179.204 141.95 180.075 141.896 180.946 142.004C186.175 142.604 189.824 148.649 189.061 155.511Z" fill="white"/>
<path d="M178.82 167.002C178.493 167.002 178.166 167.002 177.84 166.948C177.567 166.948 177.35 166.893 177.077 166.839C171.958 165.75 168.581 159.759 169.398 153.169C170.052 147.45 173.701 142.821 178.166 141.841C179.038 141.677 179.909 141.623 180.781 141.732C186.281 142.386 190.039 148.54 189.222 155.511C188.895 158.724 187.479 161.719 185.301 164.061C183.667 165.913 181.325 166.948 178.82 167.002ZM179.909 142.222C179.365 142.222 178.82 142.277 178.33 142.385C174.027 143.311 170.596 147.777 169.943 153.223C169.18 159.487 172.394 165.259 177.241 166.294C177.458 166.349 177.676 166.403 177.949 166.403C180.454 166.675 182.959 165.75 184.974 163.68C187.098 161.447 188.46 158.561 188.787 155.456C189.549 148.812 186.009 142.876 180.835 142.277C180.508 142.222 180.236 142.222 179.909 142.222Z" fill="#241F20"/>
<path d="M185.792 155.511C185.139 161.229 181.49 165.695 177.187 166.567C172.231 165.477 168.909 159.704 169.726 153.224C170.38 147.505 174.028 143.039 178.331 142.113C183.233 143.203 186.555 148.975 185.792 155.511Z" fill="#241F20"/>
<path d="M15.3809 48.439V160.521L107.476 209.973V168.636L53.7765 117.878L40.5422 59.4947L15.3809 48.439Z" fill="#F9BF34"/>
<path d="M107.476 210.354C107.422 210.354 107.367 210.354 107.258 210.3L15.2178 160.848C15.1089 160.794 15 160.63 15 160.467V48.4389C15 48.2756 15.0545 48.1666 15.1634 48.1122C15.2723 48.0577 15.4357 48.0033 15.5446 48.0577L40.706 59.1679C40.8149 59.2224 40.9239 59.3313 40.9239 59.4402L54.1036 117.714L107.694 168.364C107.749 168.418 107.803 168.527 107.803 168.636V209.973C107.803 210.136 107.749 210.245 107.585 210.3C107.64 210.354 107.531 210.354 107.476 210.354ZM15.8169 160.249L107.041 209.265V168.8L53.5045 118.205C53.4501 118.15 53.3956 118.096 53.3956 117.987L40.2158 59.767L15.8169 49.038V160.249Z" fill="#241F20"/>
<path d="M107.477 168.636L208.068 146.034V181.38L107.477 209.972V168.636Z" fill="#F9BF34"/>
<path d="M107.476 210.354C107.367 210.354 107.313 210.3 107.258 210.3C107.149 210.245 107.095 210.082 107.095 209.973V168.637C107.095 168.419 107.204 168.255 107.422 168.255L208.013 145.654C208.23 145.599 208.448 145.763 208.503 145.98C208.503 146.035 208.503 146.035 208.503 146.089V181.49C208.503 181.653 208.394 181.816 208.23 181.871L107.639 210.409C107.53 210.354 107.476 210.354 107.476 210.354ZM107.857 168.963V209.428L207.631 181.108V146.525L107.857 168.963Z" fill="#241F20"/>
<path d="M185.085 121.691L169.618 124.958V70.6598L185.085 68.6992V121.691Z" fill="#F9BF34"/>
<path d="M169.616 125.339C169.507 125.339 169.453 125.285 169.344 125.23C169.235 125.176 169.181 125.012 169.181 124.903V70.6048C169.181 70.387 169.344 70.2236 169.507 70.1691L184.975 68.2085C185.084 68.2085 185.192 68.2085 185.301 68.3174C185.41 68.3719 185.465 68.4808 185.41 68.6442V121.636C185.41 121.853 185.301 122.017 185.084 122.017L169.616 125.285V125.339ZM170.052 70.9861V124.413L184.702 121.309V69.1343L170.052 70.9861Z" fill="#241F20"/>
<path d="M142.659 130.513L127.191 133.781V76.5957L142.659 74.5806V130.513Z" fill="#F9BF34"/>
<path d="M127.192 134.216C127.083 134.216 127.028 134.162 126.919 134.107C126.81 134.053 126.756 133.889 126.756 133.781V76.5956C126.756 76.3778 126.919 76.2144 127.083 76.1599L142.55 74.1448C142.768 74.0904 142.985 74.2538 142.985 74.4716V74.5261V130.513C142.985 130.731 142.877 130.894 142.659 130.894L127.192 134.162V134.216ZM127.627 76.9224V133.29L142.277 130.186V75.0162L127.627 76.9224Z" fill="#241F20"/>
<path d="M121.037 37.6009V21.5346L76.0518 9.38965V27.9067L121.037 37.6009Z" fill="#241F20"/>
<path d="M106.768 36.0216V23.6587L72.0215 14.2368V28.5603L106.768 36.0216Z" fill="white"/>
<path d="M106.768 36.2937H106.714L72.0216 28.8324C71.9126 28.8324 71.8037 28.6691 71.8037 28.5601V14.2367C71.8037 14.1277 71.8582 14.0733 71.9126 14.0188C71.9671 13.9644 72.076 13.9644 72.1305 13.9644L106.823 23.3318C106.932 23.3863 107.041 23.4952 107.041 23.6041V36.0214C106.986 36.1848 106.877 36.2937 106.768 36.2937ZM72.2939 28.3423L106.441 35.6946V23.822L72.2939 14.6179V28.3423Z" fill="#241F20"/>
<path d="M164.824 29.2138V18.9749L124.25 9.38965V21.1534L164.824 29.2138Z" fill="#F9BF34"/>
<path d="M164.825 29.5951H164.77L124.251 21.5347C124.033 21.4802 123.924 21.3168 123.924 21.1535V9.3897C123.924 9.17185 124.142 8.954 124.36 9.00846H124.414L164.879 18.5393C165.043 18.5938 165.206 18.7571 165.206 18.9205V29.1594C165.206 29.3772 165.043 29.5951 164.825 29.5951ZM124.686 20.8267L164.389 28.7237V19.3018L124.686 9.87985V20.8267Z" fill="#241F20"/>
<path d="M172.885 34.4421V27.7978L146.417 21.5347V29.2138L172.885 34.4421Z" fill="white"/>
<path d="M172.885 34.7143L146.362 29.4315C146.253 29.4315 146.145 29.2681 146.145 29.1592V21.5345C146.145 21.4256 146.199 21.3711 146.253 21.3167C146.308 21.2622 146.417 21.2622 146.471 21.2622L172.94 27.5253C173.049 27.5798 173.158 27.6887 173.158 27.7976V34.442C173.158 34.5509 173.103 34.6054 173.049 34.6598C172.994 34.7143 172.94 34.7143 172.885 34.7143ZM146.689 28.9958L172.613 34.1152V28.0155L146.689 21.9157V28.9958Z" fill="#241F20"/>
<path d="M66.1398 26.7629H66.0308L45.1719 21.8068C45.0086 21.7524 44.9541 21.6434 44.9541 21.4801C45.0086 21.3167 45.1175 21.2622 45.2809 21.2622L66.1398 26.2182C66.3032 26.2727 66.3576 26.3816 66.3576 26.545C66.3576 26.7084 66.2487 26.7629 66.1398 26.7629Z" fill="#241F20"/>
<path d="M72.0219 24.3121H71.9674L66.6846 23.114C66.5213 23.0595 66.4668 22.9506 66.4668 22.7872C66.5213 22.6238 66.6302 22.5693 66.7936 22.5693L72.0764 23.7675C72.2398 23.7675 72.3487 23.9309 72.2942 24.0943C72.2942 24.2032 72.1853 24.3121 72.0219 24.3121Z" fill="#241F20"/>
<path d="M146.416 29.4859H146.362L127.137 25.4558C126.973 25.4013 126.919 25.2924 126.919 25.129C126.973 24.9656 127.082 24.9111 127.246 24.9111L146.471 28.9413C146.634 28.9413 146.743 29.1047 146.689 29.2681C146.634 29.4315 146.58 29.4859 146.416 29.4859Z" fill="#241F20"/>
</svg>
