<svg width="224" height="224" viewBox="0 0 224 224" fill="none" xmlns="http://www.w3.org/2000/svg">
<g clip-path="url(#clip0_19371_111369)">
<path d="M24.5285 49.4106L21.7354 60.0356L32.5794 57.6258L24.5285 49.4106Z" fill="#231F20"/>
<path d="M198.91 147.719L88.3335 197.667L2.67676 67.4291L39.5902 50.7797L77.7633 33.5279L113.308 17.481L198.91 147.719Z" fill="white"/>
<path d="M88.3331 198.215C88.1688 198.215 87.9497 198.105 87.8949 197.941L2.2382 67.7579C2.12867 67.6484 2.12867 67.4841 2.18344 67.3197C2.2382 67.1554 2.34774 67.0459 2.45727 66.9911L113.033 17.043C113.252 16.9334 113.581 17.043 113.691 17.262L199.347 147.39C199.457 147.5 199.457 147.664 199.402 147.828C199.347 147.993 199.238 148.102 199.128 148.157L88.5521 198.105C88.4426 198.16 88.3878 198.215 88.3331 198.215ZM3.49786 67.6483L88.4974 196.955L198.088 147.445L113.088 18.1931L3.49786 67.6483Z" fill="#231F20"/>
<path d="M85.102 207.47L87.5665 197.338L1.96455 67.1553L-0.5 77.2325L85.102 207.47Z" fill="#231F20"/>
<path d="M198.142 147.39L87.5664 197.338L84.8828 207.251L195.459 157.303L198.142 147.39Z" fill="#231F20"/>
<path d="M189.708 143.94L88.6615 189.561L10.3984 70.6059L38.33 58.0093L44.1354 55.3805L79.0224 39.6074L80.1177 39.1144L111.445 24.9844L189.708 143.94Z" fill="white"/>
<path d="M88.4427 190.273L88.1688 189.89L9.57715 70.3868L111.609 24.3271L111.883 24.7105L190.475 144.214L189.872 144.488L88.4427 190.273ZM11.2202 70.8797L88.826 188.904L188.832 143.721L111.281 25.6416L11.2202 70.8797Z" fill="#231F20"/>
<path d="M64.0713 127.509L144.635 92.1294L177.933 139.065L96.4938 175.048L64.0713 127.509Z" fill="white"/>
<path d="M96.4934 175.596C96.3291 175.596 96.1648 175.486 96.0552 175.377L63.6327 127.784C63.5232 127.674 63.5232 127.455 63.578 127.345C63.6327 127.181 63.7423 127.072 63.9066 127.017L144.47 91.6369C144.689 91.5273 144.963 91.6369 145.127 91.8012L178.426 138.792C178.59 139.066 178.535 139.394 178.316 139.559C178.262 139.559 178.262 139.613 178.207 139.613L96.7672 175.596C96.6577 175.596 96.5481 175.596 96.4934 175.596ZM64.8924 127.729L96.6577 174.391L177.111 138.847L144.47 92.787L64.8924 127.729Z" fill="#D1D3D4"/>
<path d="M31.375 80.5187L114.622 43.0576L123.22 56.1471L40.576 92.6772L31.375 80.5187Z" fill="white"/>
<path d="M40.5758 93.2252C40.4115 93.2252 40.2472 93.1704 40.1377 93.0061L30.9367 80.8477C30.8272 80.7381 30.8271 80.5191 30.8271 80.3548C30.8819 80.1905 30.9915 80.0809 31.1558 79.9714L114.403 42.5103C114.622 42.4007 114.896 42.5103 115.06 42.7293L123.658 55.8188C123.768 55.9284 123.768 56.0927 123.713 56.257C123.658 56.4213 123.549 56.5308 123.385 56.5856L40.7401 93.1704C40.7401 93.2799 40.6306 93.2799 40.5758 93.2252ZM32.1963 80.7381L40.7401 92.0203L122.399 55.8736L114.403 43.7151L32.1963 80.7381Z" fill="#D1D3D4"/>
<path d="M43.5879 98.3732L125.027 60.5835L133.626 73.0705L50.9815 108.779L43.5879 98.3732Z" fill="white"/>
<path d="M50.9821 109.326C50.8178 109.326 50.6535 109.217 50.5439 109.107L43.0955 98.7015C42.9312 98.4824 42.986 98.0991 43.2051 97.9348C43.2598 97.9348 43.2598 97.88 43.3146 97.88L124.754 60.145C125.028 60.0355 125.302 60.145 125.466 60.3641L134.065 72.8511C134.174 72.9607 134.174 73.1797 134.119 73.2893C134.065 73.4536 133.955 73.5631 133.791 73.6179L51.1464 109.272C51.1464 109.326 51.0369 109.326 50.9821 109.326ZM44.41 98.592L51.2012 108.122L132.805 72.9059L124.809 61.3499L44.41 98.592Z" fill="#D1D3D4"/>
<path d="M53.9941 114.092L135.708 77.5615L143.156 87.3649L59.9091 123.019L53.9941 114.092Z" fill="white"/>
<path d="M59.9087 123.566C59.7444 123.566 59.5801 123.457 59.4706 123.292L53.5009 114.365C53.3914 114.256 53.3914 114.091 53.4461 113.927C53.5009 113.763 53.6104 113.653 53.7747 113.599L135.543 77.0138C135.762 76.9042 136.036 76.959 136.2 77.1781L143.649 86.9815C143.758 87.091 143.758 87.3101 143.758 87.4744C143.703 87.6387 143.594 87.7482 143.43 87.8578L60.1826 123.512C60.073 123.566 60.0183 123.566 59.9087 123.566ZM54.8153 114.365L60.1278 122.361L142.279 87.1458L135.543 78.2186L54.8153 114.365Z" fill="#D1D3D4"/>
<path d="M157.72 130.256C159.404 119.223 151.026 108.792 139.006 106.957C126.987 105.122 115.877 112.579 114.193 123.611C112.509 134.644 120.887 145.076 132.907 146.911C144.927 148.746 156.036 141.289 157.72 130.256Z" fill="white"/>
<path d="M136.529 147.774C135.27 147.774 134.065 147.664 132.805 147.5C127 146.678 121.687 143.666 117.963 139.065C111.007 130.741 112.158 118.363 120.482 111.408C121.085 110.915 121.742 110.422 122.399 109.984C132.586 103.357 146.168 105.438 153.945 114.803C157.505 119.13 159.094 124.771 158.272 130.357C156.684 140.544 147.318 147.774 136.529 147.774ZM135.324 107.245C130.943 107.245 126.671 108.505 123.002 110.915C114.403 116.446 111.884 127.893 117.415 136.546C117.853 137.203 118.292 137.806 118.784 138.408C122.344 142.735 127.383 145.638 132.969 146.404C144.69 148.212 155.534 140.928 157.177 130.193C157.943 124.935 156.465 119.623 153.069 115.515C149.509 111.189 144.471 108.286 138.884 107.519C137.734 107.355 136.529 107.245 135.324 107.245Z" fill="#231F20"/>
<path d="M139.597 134.41C139.542 134.41 139.487 134.41 139.433 134.41L122.564 129.591C122.29 129.481 122.126 129.207 122.235 128.879C122.345 128.605 122.619 128.441 122.893 128.55L139.268 133.206L150.66 101.112C150.769 100.838 151.043 100.673 151.317 100.728C151.591 100.838 151.755 101.112 151.701 101.385V101.44L140.145 134.027C140.035 134.301 139.816 134.41 139.597 134.41Z" fill="#231F20"/>
<path d="M164.043 120.597C169.954 111.13 166.385 98.2351 156.071 91.7954C145.758 85.3558 132.605 87.8099 126.694 97.2769C120.783 106.744 124.352 119.639 134.666 126.078C144.979 132.518 158.132 130.064 164.043 120.597Z" fill="#231F20"/>
<path d="M163.785 115.332C168.703 107.456 165.743 96.7335 157.174 91.3832C148.605 86.0328 137.672 88.0805 132.754 95.9569C127.836 103.833 130.796 114.556 139.365 119.906C147.934 125.256 158.868 123.209 163.785 115.332Z" fill="#F9BF34"/>
<path d="M165.829 106.679C173.444 101.003 177.507 93.5704 174.904 90.0781C172.302 86.5858 164.018 88.3558 156.403 94.0316C148.788 99.7074 144.724 107.14 147.327 110.632C149.93 114.124 158.214 112.354 165.829 106.679Z" fill="white"/>
<path d="M151.865 112.996C149.675 112.996 147.922 112.338 146.881 110.969C145.512 109.107 145.731 106.204 147.539 102.864C149.291 99.6324 152.303 96.3463 156.028 93.5531C159.752 90.76 163.805 88.7884 167.364 88.0216C171.089 87.2549 173.882 87.8025 175.306 89.7194C176.73 91.6363 176.456 94.4842 174.649 97.825C172.896 101.056 169.884 104.342 166.16 107.136C161.066 110.969 155.808 112.996 151.865 112.996ZM170.377 88.8431C169.446 88.8431 168.515 88.9527 167.638 89.1717C164.243 89.8837 160.354 91.8006 156.74 94.4842C153.125 97.1678 150.222 100.344 148.524 103.411C146.936 106.369 146.662 108.833 147.812 110.312C150.222 113.489 158.328 111.681 165.557 106.259C169.172 103.576 172.075 100.399 173.772 97.3321C175.361 94.3747 175.634 91.9649 174.539 90.4314C173.663 89.3908 172.294 88.8431 170.377 88.8431Z" fill="#231F20"/>
<path d="M141.678 92.3486C141.678 92.3486 138.228 92.239 137.406 99.5779C136.804 104.781 138.885 110.367 141.733 112.229C145.128 114.475 154.384 118.911 156.246 114.201C161.121 112.065 170.486 111.955 171.8 110.586C174.374 107.848 168.076 90.1031 171.143 80.2997C162.49 79.2043 152.139 75.5349 148.579 84.462C143.047 85.886 142.664 89.4459 141.678 92.3486Z" fill="white"/>
<path d="M152.576 116.83C148.633 116.83 143.375 113.982 141.404 112.722C138.337 110.696 136.255 104.781 136.858 99.5232C137.57 93.1701 140.199 92.02 141.239 91.8009C141.294 91.5819 141.404 91.308 141.458 91.0342C142.225 88.4601 143.211 85.3383 148.085 83.9691C151.262 76.3564 159.148 77.7256 166.761 78.9853C168.185 79.2044 169.719 79.4782 171.088 79.6425C171.362 79.6973 171.581 79.9711 171.581 80.2449C171.581 80.2997 171.581 80.2997 171.581 80.3545C169.938 85.6669 171.088 93.4987 172.019 99.7423C172.84 105.383 173.443 109.436 172.128 110.86C171.416 111.627 169.335 111.955 165.775 112.503C162.653 112.996 159.094 113.489 156.629 114.53C156.191 115.461 155.369 116.227 154.329 116.501C153.781 116.775 153.179 116.83 152.576 116.83ZM141.677 92.8963C141.623 92.8963 138.72 93.0058 137.953 99.6875C137.406 104.452 139.268 110.039 142.006 111.846C144.525 113.489 150.824 116.611 154.055 115.625C154.822 115.406 155.479 114.858 155.753 114.091C155.808 113.982 155.917 113.872 156.027 113.818C158.655 112.667 162.38 112.12 165.666 111.627C168.13 111.243 170.923 110.86 171.416 110.312C172.402 109.272 171.745 104.836 171.033 100.126C170.102 93.9916 168.952 86.3789 170.431 80.8474C169.171 80.6831 167.911 80.464 166.652 80.2449C159.039 78.9305 151.864 77.7256 149.071 84.7907C149.016 84.955 148.852 85.0645 148.688 85.1193C144.142 86.2694 143.32 88.953 142.554 91.5271C142.444 91.9105 142.335 92.2938 142.225 92.6224C142.17 92.732 141.951 92.8963 141.677 92.8963Z" fill="#231F20"/>
<path d="M141.24 99.0303C141.24 99.0303 140.966 106.314 143.212 108.669C146.005 111.627 150.824 114.256 154.22 114.639C156.246 114.913 158.218 114.365 159.861 113.16" fill="white"/>
<path d="M155.204 115.241C154.876 115.241 154.547 115.241 154.219 115.187C150.659 114.803 145.73 112.174 142.827 109.053C140.472 106.533 140.691 99.304 140.691 98.9754C140.691 98.6468 140.965 98.4277 141.239 98.4277C141.512 98.4277 141.786 98.7016 141.786 98.9754C141.732 100.947 141.896 106.424 143.594 108.231C146.277 111.134 150.987 113.653 154.273 114.037C156.135 114.256 157.998 113.817 159.476 112.667C159.695 112.448 160.024 112.503 160.243 112.722C160.462 112.941 160.407 113.27 160.188 113.489C158.819 114.694 157.012 115.296 155.204 115.241Z" fill="#231F20"/>
<path d="M145.73 94.8677C145.73 94.8677 145.511 103.631 147.647 106.259C148.852 107.738 154.986 111.079 157.998 112.284C159.97 112.996 162.051 113.16 164.132 112.722C165.556 112.174 167.254 110.641 166.596 109.381C165.939 108.121 157.669 102.809 157.669 102.809" fill="white"/>
<path d="M161.723 113.489C160.354 113.489 159.04 113.27 157.78 112.777C154.658 111.572 148.47 108.176 147.21 106.643C145.019 103.905 145.183 95.2513 145.183 94.9227C145.183 94.5941 145.403 94.375 145.731 94.375C146.06 94.375 146.279 94.5941 146.279 94.9227C146.224 97.3325 146.443 103.905 148.086 105.931C149.127 107.191 154.987 110.477 158.218 111.736C160.08 112.394 162.052 112.558 163.969 112.12C164.79 111.791 165.831 111.024 166.105 110.258C166.214 110.039 166.214 109.765 166.105 109.546C165.776 108.834 161.395 105.767 157.397 103.193C157.123 103.028 157.068 102.7 157.232 102.426C157.397 102.152 157.725 102.097 157.999 102.262C159.423 103.138 166.433 107.684 167.091 109.053C167.31 109.546 167.364 110.148 167.145 110.641C166.707 111.791 165.448 112.722 164.352 113.16H164.297C163.421 113.379 162.6 113.489 161.723 113.489Z" fill="#231F20"/>
<path d="M150.386 90.2676C150.386 90.2676 149.291 97.8255 151.153 101.276C153.344 105.329 163.969 108.779 163.969 108.779C166.488 109.655 170.048 110.039 170.979 108.67" fill="white"/>
<path d="M168.349 110.203C166.816 110.149 165.282 109.875 163.803 109.382C163.365 109.218 152.905 105.822 150.659 101.605C148.742 97.9901 149.783 90.5417 149.838 90.2131C149.892 89.8845 150.166 89.7202 150.44 89.7202C150.769 89.775 150.933 90.0488 150.933 90.3227C150.933 90.3774 149.892 97.7711 151.645 101.002C153.671 104.836 164.022 108.232 164.132 108.232C166.651 109.108 169.828 109.327 170.485 108.341C170.649 108.067 170.978 108.013 171.252 108.177C171.526 108.341 171.58 108.67 171.471 108.944C171.471 108.944 171.471 108.944 171.471 108.998C170.868 109.875 169.664 110.203 168.349 110.203Z" fill="#231F20"/>
<path d="M176.181 106.26C171.033 103.248 167.199 108.834 163.585 105.986C153.836 98.2637 149.071 103.686 151.481 106.534C155.753 111.572 164.625 118.035 169.226 117.816C175.853 117.432 179.413 114.42 190.421 106.643C190.969 105.548 204.825 103.905 221.529 102.645C226.732 78.164 212.547 70.7156 213.04 70.5513C203.291 74.4398 187.19 81.9977 186.971 81.7239C183.465 77.1782 178.975 103.905 176.181 106.26Z" fill="white"/>
<path d="M168.952 118.309C163.914 118.309 155.096 111.627 151.043 106.808C150.003 105.603 150.057 103.795 151.207 102.7C153.07 100.783 157.506 100.4 163.914 105.493C165.447 106.698 166.981 106.205 168.897 105.548C170.979 104.891 173.334 104.124 176.017 105.493C177.003 104.124 178.427 99.3044 179.632 94.9777C182.151 86.2697 183.794 80.9024 185.821 80.519C186.259 80.4643 186.752 80.5738 187.08 80.9572C188.066 80.6286 191.462 79.0951 195.076 77.4521C200.608 74.9875 207.509 71.9205 212.712 69.8393C212.985 69.7298 213.259 69.8393 213.424 70.1132C213.478 70.1679 213.588 70.2775 213.697 70.3323C222.132 77.1782 224.98 88.3508 221.967 102.536C221.913 102.755 221.694 102.974 221.474 102.974C202.634 104.398 191.79 105.931 190.805 106.753C190.75 106.808 190.75 106.862 190.695 106.862L187.738 108.998C178.975 115.242 175.36 117.816 169.226 118.199L168.952 118.309ZM154.767 102.536C153.727 102.481 152.741 102.81 151.974 103.521C151.207 104.233 151.207 105.384 151.865 106.205C156.246 111.408 164.954 117.542 169.171 117.268C174.977 116.94 178.318 114.585 187.135 108.286L190.038 106.26C190.312 105.876 191.462 105.219 199.896 104.179C205.318 103.521 212.821 102.755 221.091 102.152C223.884 88.5699 221.146 77.945 213.15 71.4276L212.876 71.2085C207.728 73.2897 201.046 76.2472 195.624 78.6569C186.916 82.5455 186.916 82.5455 186.533 82.0525C186.423 81.8882 186.259 81.7239 186.095 81.7787C184.561 82.0525 182.261 90.1034 180.727 95.4706C178.92 101.824 177.715 105.822 176.51 106.753C176.346 106.917 176.072 106.917 175.908 106.808C173.443 105.384 171.307 106.041 169.281 106.753C167.254 107.465 165.228 108.067 163.256 106.479C159.532 103.467 156.684 102.536 154.767 102.536Z" fill="#231F20"/>
<path d="M184.924 102.755C193.417 96.3848 195.065 84.2374 188.604 75.623C182.144 67.0085 170.021 65.1891 161.527 71.5592C153.034 77.9293 151.386 90.0767 157.847 98.6911C164.308 107.306 176.431 109.125 184.924 102.755Z" fill="#231F20"/>
<path d="M89.7567 41.7981L88.278 42.4553L43.0946 62.8836L35.5914 66.2792L24.5283 49.4108L78.6936 24.9844L89.7567 41.7981Z" fill="#F9BF34"/>
<path d="M48.681 64.8007C48.5167 64.8007 48.4072 64.7459 48.3524 64.6364L35.9749 45.8511C35.9201 45.7415 35.8654 45.632 35.9201 45.5225C35.9749 45.4129 36.0297 45.3034 36.1392 45.2486L68.5069 30.6256C68.6712 30.5161 68.8903 30.6256 68.9999 30.7899L81.3774 49.5753C81.4321 49.6848 81.4869 49.7943 81.4321 49.9039C81.3774 50.0134 81.3226 50.1229 81.2131 50.1777L48.8453 64.8007C48.7906 64.8007 48.7358 64.8555 48.681 64.8007ZM36.906 45.7963L48.7906 63.8696L80.3915 49.5753L68.5069 31.5019L36.906 45.7963Z" fill="#231F20"/>
</g>
<defs>
<clipPath id="clip0_19371_111369">
<rect width="224" height="224" fill="white"/>
</clipPath>
</defs>
</svg>
